<?xml version="1.0" encoding="UTF-8"?>
<!-- Creator: CorelDRAW 2021.5 -->
<svg xmlns="http://www.w3.org/2000/svg" xmlns:xlink="http://www.w3.org/1999/xlink" xmlns:xodm="http://www.corel.com/coreldraw/odm/2003" xml:space="preserve" width="1024px" height="159px" version="1.1" style="shape-rendering:geometricPrecision; text-rendering:geometricPrecision; image-rendering:optimizeQuality; fill-rule:evenodd; clip-rule:evenodd" viewBox="0 0 1024.1 158.94">
 <defs>
  <style type="text/css">
   <![CDATA[
    .fil0 {fill:#F1C267}
   ]]>
  </style>
 </defs>
 <g id="Layer_x0020_1">
  <metadata id="CorelCorpID_0Corel-Layer"></metadata>
  <path id="CLC_Logo" class="fil0" d="M64.94 0c35.87,0 64.94,35.58 64.94,79.47 0,43.89 -29.07,79.47 -64.94,79.47 -35.86,0 -64.94,-35.58 -64.94,-79.47 0,-43.89 29.07,-79.47 64.94,-79.47zm0 6.2c-32.44,0 -58.74,32.8 -58.74,73.27 0,40.47 26.3,73.27 58.74,73.27 32.44,0 58.75,-32.8 58.75,-73.27 0,-40.47 -26.3,-73.27 -58.75,-73.27zm-7.27 116.76l14.55 0c0,0 0.82,-13.84 14.89,-8.1 8.05,-9.97 10.24,-12.66 10.24,-12.66 0,0 -0.96,-19 11.88,-44.63 4.66,-9.29 3.9,-5.1 -2.97,-2.85 -2.08,0.68 1.5,1.09 1.41,1.2 -7.42,10.57 -21.79,34.44 -21.79,39.35l-15.57 0.04 -0.31 -2.93 -0.83 0.04c-0.21,-1.67 0.4,-6.29 3.33,-8.92 -2.59,-2.82 -3.67,-30.75 -3.67,-30.75l1.54 -0.3 -5.42 -15.79 -5.41 15.79 1.53 0.3c0,0 -1.08,27.93 -3.67,30.75 2.93,2.63 3.54,7.25 3.33,8.92l-0.83 -0.04 -0.31 2.93 -15.57 -0.04c0,-4.91 -14.37,-28.78 -21.79,-39.35 -0.09,-0.11 3.5,-0.51 1.41,-1.2 -6.87,-2.25 -7.63,-6.44 -2.97,2.85 12.84,25.63 11.88,44.63 11.88,44.63 0,0 2.19,2.69 10.24,12.66 14.05,-5.74 14.88,8.1 14.88,8.1zm7.27 3.08l7.32 0c0,0 1.18,-0.92 -0.04,-2.15l-14.56 0.01c-1.21,1.21 -0.04,2.14 -0.04,2.14l7.32 0zm186.61 -26.25c0,-0.01 0,-0.03 0,-0.04 0,-1.02 -0.09,-2.04 -0.26,-3.05 -0.06,-0.17 -0.16,-0.28 -0.31,-0.31 -0.14,-0.03 -0.28,0.05 -0.39,0.22 -0.93,2.05 -2.01,4.04 -3.22,5.94 -1.08,1.67 -2.34,3.07 -3.78,4.18 -1.44,1.11 -3.09,1.95 -4.97,2.51 -1.88,0.56 -4.11,0.83 -6.69,0.83 -0.08,0 -0.18,0 -0.27,0 -4.24,0 -8.44,-0.96 -12.26,-2.81 -3.76,-1.82 -7.14,-4.36 -9.94,-7.47 -2.8,-3.15 -5.01,-6.79 -6.5,-10.74 -1.54,-3.98 -2.33,-8.24 -2.33,-12.51 0,-0.02 0,-0.04 0,-0.06 0,-4.16 0.65,-7.95 1.98,-11.35 1.23,-3.26 3.13,-6.25 5.58,-8.75 2.47,-2.47 5.44,-4.39 8.71,-5.62 3.4,-1.33 7.18,-1.98 11.35,-1.98 2.52,0 4.92,0.33 7.21,1.01 2.28,0.67 4.34,1.69 6.16,3.03 1.81,1.35 3.32,3.02 4.53,5.02 1.2,1.99 2.03,4.31 2.5,6.95 0.06,0.17 0.15,0.26 0.27,0.26 0.17,0 0.29,-0.09 0.35,-0.26 0.41,-2.71 0.78,-5.39 1.1,-8.05 0.32,-2.67 0.54,-5.41 0.66,-8.23 0,-0.23 -0.12,-0.35 -0.36,-0.35 -3.04,-0.23 -6.12,-0.62 -9.15,-1.06 -2.05,-0.3 -4.14,-0.59 -6.28,-0.89 -2.13,-0.28 -4.3,-0.43 -6.46,-0.43 0,0 -0.01,0 -0.01,0 -1.93,0 -4.03,0.12 -6.29,0.36 -2.26,0.23 -4.52,0.63 -6.72,1.18 -2.2,0.54 -4.33,1.3 -6.38,2.25 -1.93,0.87 -3.7,2.06 -5.24,3.52 -1.82,1.76 -3.43,3.72 -4.84,5.89 -1.4,2.17 -2.59,4.46 -3.56,6.86 -0.95,2.38 -1.7,4.86 -2.19,7.39 -0.5,2.48 -0.75,5.02 -0.75,7.56 0,4.86 0.82,9.28 2.46,13.23 1.64,3.97 3.95,7.36 6.91,10.21 2.96,2.84 6.46,5.04 10.51,6.6 4.05,1.56 8.44,2.33 13.19,2.33 3.87,0 7.68,-0.19 11.44,-0.57 3.74,-0.38 7.55,-0.91 11.26,-1.54 0.17,0 0.26,-0.06 0.26,-0.18 0.82,-1.64 1.48,-3.43 1.98,-5.36 0.5,-1.95 0.75,-3.85 0.75,-5.73l-0.01 0.01zm52.07 5.98l-0.26 -0.71c-1.76,0.24 -3.49,-0.07 -5.19,-0.92 -1.7,-0.84 -3.34,-2.02 -4.93,-3.51 -1.58,-1.51 -3.09,-3.17 -4.53,-5.02 -1.43,-1.85 -2.8,-3.65 -4.09,-5.41 -0.88,-1.17 -1.7,-2.3 -2.46,-3.38 -0.64,-0.94 -1.35,-1.84 -2.11,-2.68 2.03,-1.93 3.79,-4.12 5.23,-6.51 1.52,-2.4 2.33,-5.18 2.34,-8.01 0,-2.11 -0.41,-3.93 -1.24,-5.45 -0.77,-1.47 -1.89,-2.74 -3.25,-3.7 -1.41,-0.96 -3,-1.66 -4.66,-2.06 -1.75,-0.44 -3.55,-0.66 -5.35,-0.66 0,0 -0.01,0 -0.02,0l-17.33 0c-0.17,0 -0.27,0.1 -0.3,0.3 -0.03,0.21 0.04,0.34 0.22,0.4 1.34,0.35 2.5,1.04 3.47,2.07 0.97,1.02 1.45,2.21 1.45,3.56l0 35.1c0,1.35 -0.41,2.61 -1.23,3.78 -0.82,1.17 -1.85,2.05 -3.08,2.64 -0.18,0.11 -0.22,0.28 -0.13,0.49 0.09,0.2 0.22,0.28 0.39,0.22 1.35,-0.18 2.65,-0.33 3.92,-0.45 1.26,-0.11 2.56,-0.17 3.91,-0.17 1.35,0 2.69,0.04 4,0.13 1.33,0.09 2.66,0.19 4.01,0.3l0 -0.7c-1.71,-0.18 -3.07,-0.87 -4.09,-2.07 -1.03,-1.2 -1.54,-2.66 -1.54,-4.35l0 -12.5c0.47,-0.11 0.91,-0.17 1.32,-0.17l1.4 0c1.59,0 3.01,0.29 4.27,0.88 1.26,0.58 2.44,1.35 3.52,2.33 1.08,0.97 2.08,2.05 2.99,3.25 0.91,1.2 1.77,2.42 2.59,3.65 0.88,1.35 1.81,2.67 2.77,3.96 0.97,1.29 2.01,2.44 3.13,3.43 1.11,1 2.37,1.82 3.78,2.47 1.41,0.64 2.99,0.96 4.75,0.96 1.06,0 2.13,-0.13 3.21,-0.4 1.08,-0.26 2.12,-0.63 3.12,-1.09l0 0zm-22.25 -32.9c0,3.17 -0.63,5.64 -1.89,7.43 -1.26,1.79 -3.53,2.68 -6.82,2.68 -1,0 -1.96,-0.02 -2.9,-0.08 -0.97,-0.07 -1.95,-0.19 -2.9,-0.36l0 -21.9c0.64,-0.29 1.32,-0.48 2.03,-0.57 0.7,-0.09 1.4,-0.13 2.11,-0.13 1.7,0 3.19,0.4 4.48,1.19 1.29,0.79 2.38,1.8 3.26,3.04 0.88,1.23 1.53,2.61 1.98,4.13 0.43,1.52 0.65,3.05 0.65,4.57l0 0zm54.8 24.72l-0.71 -0.17c-0.47,1.99 -1.42,3.53 -2.86,4.61 -1.44,1.09 -3.18,1.62 -5.23,1.62 -1.53,0 -3.1,-0.33 -4.71,-1 -1.5,-0.6 -2.81,-1.63 -3.74,-2.96l0 -18.12 4.66 0.01c1.76,0 3.52,0.16 5.24,0.47 0.79,0.15 1.33,0.37 1.63,0.67 0.29,0.29 0.5,0.61 0.62,0.97l0.34 1.05c0.12,0.35 0.22,0.68 0.31,0.97 0.09,0.29 0.28,0.58 0.57,0.88 0.07,0.07 0.16,0.11 0.26,0.11 0.05,0 0.09,-0.01 0.14,-0.03 0.14,-0.05 0.22,-0.17 0.22,-0.34 0.11,-0.71 0.2,-1.44 0.26,-2.2 0.06,-0.76 0.15,-1.5 0.26,-2.2 0.12,-0.71 0.22,-1.47 0.31,-2.29 0.09,-0.82 0.16,-1.58 0.22,-2.29 0,-0.35 -0.14,-0.47 -0.44,-0.35 -0.65,0.18 -1.29,0.44 -1.93,0.8l-1.41 0.52c-0.36,0.16 -0.75,0.25 -1.14,0.27l-10.2 0 0 -18.03 6.94 0c1.88,0 3.46,0.32 4.76,0.97 1.29,0.64 1.99,1.99 2.11,4.04 0,0.18 0.1,0.28 0.3,0.31 0.21,0.03 0.34,-0.04 0.4,-0.22 0.29,-1.35 0.57,-2.68 0.83,-4 0.27,-1.32 0.49,-2.74 0.66,-4.26 0,-0.35 -0.14,-0.47 -0.44,-0.35 -0.24,0.11 -0.49,0.22 -0.74,0.3 -0.26,0.09 -0.51,0.19 -0.74,0.31l-25.07 0c-0.18,0 -0.28,0.08 -0.31,0.22 -0.03,0.15 0.01,0.28 0.13,0.4 0.47,0.29 0.92,0.51 1.36,0.66l1.19 0.39c0.64,0.24 1.24,0.52 1.8,0.88 0.56,0.35 0.84,1.12 0.84,2.29l0 36.59c0,0.76 -0.05,1.51 -0.14,2.24 -0.08,0.73 -0.27,1.39 -0.57,1.98 -0.29,0.59 -0.72,1.07 -1.27,1.45 -0.56,0.38 -1.28,0.57 -2.16,0.57l0 0.71c1.58,-0.06 3.18,-0.11 4.8,-0.13 1.61,-0.02 3.21,-0.05 4.79,-0.05 1.17,0 2.32,0.02 3.43,0.05 1.11,0.03 2.26,0.04 3.43,0.04 1.34,0 2.71,0.02 4.09,0.05 1.37,0.03 2.74,0.04 4.09,0.04 0.3,0 0.68,-0.09 1.14,-0.26l0.09 -0.09c0.24,0 0.35,-0.09 0.35,-0.27 0.18,-1.34 0.35,-2.65 0.53,-3.91 0.17,-1.26 0.41,-2.57 0.71,-3.92l0 0zm44.06 -39.93l-0.43 -0.36c-0.24,0.06 -0.44,0.12 -0.62,0.18 -0.18,0.06 -0.38,0.11 -0.61,0.17 -1,0.3 -1.82,0.44 -2.47,0.44l-28.15 0.01c-1.06,0 -2.03,-0.08 -2.95,-0.22 -0.96,-0.17 -1.87,-0.55 -2.68,-1.11 -0.23,-0.17 -0.41,-0.11 -0.52,0.18 -0.12,0.41 -0.24,0.81 -0.36,1.19 -0.11,0.38 -0.23,0.77 -0.34,1.18 -0.24,0.82 -0.48,1.66 -0.71,2.51 -0.24,0.85 -0.35,1.74 -0.35,2.68l0.17 1.15c0,0.17 0.09,0.29 0.27,0.35 0.18,0.06 0.29,0 0.35,-0.18 0.47,-1.23 1.23,-2.32 2.29,-3.25 1.06,-0.94 2.29,-1.41 3.69,-1.41l10.56 0 0 38.17c0,1 -0.04,1.84 -0.1,2.52 -0.02,0.57 -0.2,1.13 -0.52,1.62 -0.33,0.44 -0.77,0.79 -1.28,1.01 -0.75,0.33 -1.53,0.58 -2.33,0.75 -0.17,0.06 -0.25,0.21 -0.22,0.44 0.03,0.23 0.13,0.32 0.31,0.26 2.26,-0.22 4.58,-0.34 6.86,-0.35 1.53,0 3.02,0.04 4.49,0.13 1.47,0.09 2.96,0.19 4.49,0.31 0.17,0 0.27,-0.11 0.3,-0.31 0.03,-0.21 -0.04,-0.34 -0.22,-0.4 -1.64,-0.3 -2.99,-1.02 -4.04,-2.2 -1.06,-1.17 -1.59,-2.61 -1.59,-4.31l0 -37.73 7.74 0c1.88,0 3.5,0.34 4.88,1.02 1.38,0.67 2.3,2.04 2.77,4.08 0.06,0.18 0.14,0.27 0.27,0.27 0.17,0 0.29,-0.09 0.35,-0.27 0.35,-1.29 0.55,-2.69 0.61,-4.21 0.07,-1.53 0.1,-2.97 0.1,-4.31l-0.01 0zm47.15 48.11c-0.82,0.12 -1.6,0.15 -2.33,0.09 -0.73,-0.06 -1.52,-0.11 -2.34,-0.17 -0.98,-0.12 -1.99,-0.18 -2.98,-0.18 -1.35,0 -2.7,0.06 -4.05,0.17l-4.05 0.35c-0.17,0 -0.29,-0.09 -0.35,-0.26 -0.06,-0.18 0,-0.32 0.18,-0.44l3.43 -1.68c-1,-2.75 -2.04,-5.46 -3.13,-8.13 -1.08,-2.67 -2.12,-5.41 -3.12,-8.23l-13.63 0c-0.3,0.77 -0.72,1.9 -1.28,3.39 -1.11,3.03 -2.15,6.13 -3.04,9.23 -0.41,1.44 -0.61,2.48 -0.61,3.13 0,0.88 0.38,1.45 1.14,1.71 0.76,0.27 1.5,0.46 2.2,0.58l0 0.7c-1.12,-0.11 -2.3,-0.23 -3.42,-0.31 -1.17,-0.08 -2.36,-0.13 -3.53,-0.13 -1.17,0 -2.36,0.05 -3.52,0.13 -1.18,0.09 -2.34,0.19 -3.52,0.31 -0.18,0.06 -0.28,-0.03 -0.31,-0.26 -0.03,-0.24 0.04,-0.38 0.22,-0.44 3.22,-0.41 5.48,-2.12 6.77,-5.1l0 0.09c1.7,-4.28 3.35,-8.57 4.93,-12.85 1.58,-4.27 3.14,-8.59 4.66,-12.92 1.06,-2.94 2.08,-5.85 3.08,-8.76 1,-2.9 2.05,-5.82 3.17,-8.75 0.05,-0.18 0.17,-0.27 0.34,-0.27 0.18,0 0.3,0.09 0.36,0.27 0.29,0.82 0.6,1.63 0.92,2.42 0.32,0.79 0.63,1.59 0.92,2.41 2.31,6.48 4.95,13.35 7.48,19.78 2.66,6.65 5.66,13.16 8.97,19.47 0.7,1.34 1.59,2.31 2.68,2.9 1.09,0.59 2.34,0.94 3.74,1.06l0 0.7 0.02 -0.01zm-20.06 -21.37l-5.45 -18.3c-1,3.11 -1.95,6.14 -2.86,9.1 -0.94,3.06 -1.98,6.2 -3.03,9.19l11.34 0.01zm86.29 15.91l-0.7 -0.26c-1.31,2.7 -3.33,5.02 -5.85,6.68 -2.45,1.66 -5.34,2.55 -8.3,2.55 -0.03,0 -0.06,0 -0.1,0 -1.58,0 -3.04,-0.24 -4.39,-0.71 -1.35,-0.47 -2.53,-1.14 -3.52,-2.02 -1,-0.88 -1.79,-1.97 -2.38,-3.25 -0.58,-1.29 -0.88,-2.76 -0.88,-4.4l0 -44.42c0,-1.88 0.69,-3.39 2.07,-4.53 1.38,-1.14 2.92,-1.86 4.62,-2.16 0.17,-0.06 0.25,-0.19 0.22,-0.39 -0.03,-0.21 -0.13,-0.31 -0.31,-0.31l-5.15 0.35c-1.73,0.11 -3.47,0.17 -5.23,0.17 -3.75,0 -7.42,-0.09 -11,-0.26l0 0.71c1.88,0.06 3.48,0.66 4.8,1.8 1.32,1.14 1.98,2.71 1.98,4.7l0 48.47c0,0.83 -0.13,1.72 -0.4,2.69 -0.25,0.93 -0.64,1.84 -1.14,2.68 -0.49,0.8 -1.11,1.52 -1.85,2.11 -0.68,0.57 -1.53,0.91 -2.42,0.97 -0.17,0 -0.26,0.11 -0.26,0.35 0,0.23 0.09,0.35 0.26,0.35 0.71,-0.06 1.5,-0.09 2.38,-0.09 0.93,0 1.78,-0.03 2.54,-0.09 4.77,-0.13 9.71,-0.27 14.51,-0.27 5.93,0 11.88,0.27 17.86,0.79 0.12,0 0.23,-0.06 0.35,-0.17 0.06,-0.12 0.11,-0.22 0.18,-0.31l0.09 -0.13c0,-0.18 -0.03,-0.3 -0.09,-0.36 0.7,-1.52 1.17,-3.13 1.41,-4.79 0.27,-1.88 0.46,-3.81 0.56,-5.71 0.03,-0.2 0.09,-0.44 0.14,-0.74zm48.38 -41.42l-0.09 -0.71c-0.7,-0.03 -1.41,-0.06 -2.11,-0.06 -0.35,0 -0.71,0.01 -1.05,0.02 -1.06,0.03 -2.09,0.04 -3.08,0.04 -0.48,0 -0.95,0.02 -1.46,0.05 -0.49,0.03 -0.97,0.04 -1.45,0.04 -1.58,0 -3.19,-0.09 -4.83,-0.27 -0.18,0 -0.28,0.11 -0.31,0.31 -0.03,0.21 0.04,0.34 0.22,0.4 1.64,0.29 2.9,0.83 3.78,1.63 0.88,0.79 1.32,2.03 1.32,3.73l0.18 26.57c0,2.05 -0.34,3.9 -1.02,5.54 -0.67,1.64 -1.62,3.05 -2.85,4.22 -1.27,1.19 -2.77,2.12 -4.4,2.73 -1.72,0.64 -3.55,0.97 -5.39,0.97 -0.05,0 -0.1,0 -0.15,0 -1.94,0 -3.74,-0.33 -5.41,-0.97 -1.61,-0.61 -3.09,-1.52 -4.35,-2.68 -1.24,-1.16 -2.22,-2.58 -2.86,-4.14 -0.67,-1.65 -1.01,-3.42 -1.01,-5.2 0,-0.07 0,-0.14 0,-0.21l0.17 -26.91c0,-1.06 0.49,-2.04 1.46,-2.95 0.96,-0.91 1.92,-1.6 2.85,-2.07 0.18,-0.11 0.24,-0.27 0.18,-0.44 -0.06,-0.18 -0.18,-0.27 -0.35,-0.27 -0.9,0.06 -1.82,0.1 -2.73,0.1l-2.73 0c-3.29,0 -6.6,-0.09 -9.94,-0.27 -0.18,0 -0.28,0.11 -0.31,0.31 -0.02,0.21 0.05,0.34 0.22,0.4 1.58,0.41 2.83,0.96 3.75,1.67 0.9,0.71 1.36,1.91 1.36,3.6l0 8.89c0,1.23 -0.02,2.58 -0.05,4.05 -0.01,1.33 -0.04,2.8 -0.04,4.17 0,1.36 0.03,2.84 0.03,4.18 0.03,1.29 0.06,2.48 0.09,3.57 0.03,1.08 0.09,2.05 0.18,2.9 0.09,0.85 0.22,1.48 0.39,1.89 0.65,1.94 1.63,3.73 2.95,5.37 1.32,1.64 2.83,3.08 4.53,4.31 1.7,1.23 3.54,2.18 5.5,2.86 1.97,0.68 3.97,1.01 6.03,1.01 2.81,0 5.35,-0.51 7.6,-1.53 2.26,-1.03 4.18,-2.44 5.77,-4.23 1.58,-1.78 2.81,-3.88 3.7,-6.29 0.88,-2.41 1.32,-4.96 1.32,-7.52 0,-0.04 0,-0.09 0,-0.13l0 -23.57c0,-1.24 0.41,-2.34 1.23,-3.3 0.82,-0.98 1.87,-1.58 3.16,-1.82l0 0.01zm48.47 46.44c-1.56,-0.46 -2.99,-1.28 -4.18,-2.38 -1.32,-1.16 -2.57,-2.54 -3.78,-4.13 -1.2,-1.59 -2.34,-3.31 -3.43,-5.2 -1.76,-3.18 -3.79,-6.71 -5.55,-9.89 -0.75,-1.38 -1.59,-2.73 -2.5,-4 0.52,-0.77 1.1,-1.65 1.72,-2.64 0.61,-1 1.27,-2.09 1.97,-3.26l3.13 -4.97c1.08,-1.73 2.2,-3.33 3.34,-4.79 1.14,-1.47 2.32,-2.67 3.52,-3.61 1.2,-0.93 2.42,-1.47 3.65,-1.58l0 -0.71c-1.93,0.18 -3.9,0.27 -5.9,0.27 -1.23,0 -2.43,-0.05 -3.6,-0.13 -1.17,-0.09 -2.37,-0.19 -3.6,-0.31 -0.18,0 -0.28,0.1 -0.31,0.31 -0.04,0.2 0.04,0.34 0.22,0.39 0.59,0.24 1.26,0.6 2.02,1.1 0.76,0.51 1.14,1.07 1.14,1.72 0,0.47 -0.17,1.04 -0.53,1.72 -0.35,0.67 -0.79,1.41 -1.32,2.2 -0.53,0.79 -1.11,1.64 -1.76,2.54 -0.64,0.92 -1.29,1.81 -1.94,2.69 -0.82,1.17 -1.58,2.27 -2.28,3.3 -0.71,1.03 -1.26,1.89 -1.67,2.59 -0.51,-0.99 -1.08,-1.98 -1.67,-2.94 -1.26,-1.92 -2.48,-3.97 -3.66,-5.91 -0.55,-0.91 -1.07,-1.79 -1.54,-2.64 -0.46,-0.85 -0.86,-1.64 -1.19,-2.38 -0.25,-0.48 -0.41,-1.04 -0.47,-1.6 0,-0.71 0.26,-1.28 0.79,-1.72 0.51,-0.43 1.11,-0.74 1.76,-0.92 0.17,-0.06 0.25,-0.19 0.22,-0.39 -0.03,-0.21 -0.13,-0.31 -0.31,-0.31 -0.68,0 -1.36,0.03 -2.02,0.09l-2.03 0.18c-1.59,0.23 -3.21,0.35 -4.82,0.35 0,0 -0.01,0 -0.01,0 -2.17,0 -4.36,-0.13 -6.52,-0.36 -0.17,0 -0.28,0.11 -0.3,0.31 -0.04,0.21 0.04,0.34 0.22,0.4 1.57,0.29 3.07,1.02 4.48,2.2 1.41,1.16 2.73,2.58 3.96,4.26 1.23,1.67 2.37,3.46 3.43,5.37 1.05,1.9 2.02,3.74 2.9,5.5 0.91,1.84 1.86,3.66 2.82,5.46 -0.47,0.82 -1.06,1.8 -1.76,2.95 -0.71,1.14 -1.41,2.33 -2.12,3.56 -1.05,1.87 -2.18,3.81 -3.38,5.8 -1.21,2 -2.44,3.83 -3.7,5.5 -1.26,1.68 -2.56,3.08 -3.91,4.22 -1.35,1.15 -2.73,1.75 -4.13,1.81l0 0.7c2.19,-0.25 4.41,-0.38 6.6,-0.38 1.15,0 2.3,0.04 3.43,0.1 1.06,0.06 2.17,0.15 3.35,0.27l0 -0.71c-0.9,-0.07 -1.75,-0.48 -2.37,-1.14 0.06,-0.76 0.34,-1.73 0.83,-2.9 0.5,-1.18 1.1,-2.41 1.81,-3.7 0.7,-1.29 1.46,-2.62 2.28,-4 0.82,-1.38 1.62,-2.68 2.38,-3.91 0.58,-0.94 1.14,-1.81 1.67,-2.6 0.53,-0.79 0.97,-1.51 1.32,-2.15 0.17,0.3 0.34,0.57 0.49,0.84 0.14,0.26 0.42,0.71 0.83,1.36 0.77,1.29 1.66,2.77 2.69,4.44 1.02,1.67 2,3.31 2.95,4.92 0.93,1.62 1.75,3.09 2.46,4.4 0.71,1.33 1.14,2.27 1.32,2.86l-1.5 1.67c-0.11,0.12 -0.14,0.25 -0.09,0.4 0.06,0.14 0.18,0.22 0.35,0.22 2.16,-0.23 4.34,-0.36 6.51,-0.36 0,0 0,0 0,0 2.41,0 4.83,0.12 7.22,0.35l0.06 -0.71 0.01 0.01zm51.63 -46.44l-0.09 -0.71c-0.7,-0.03 -1.41,-0.06 -2.11,-0.06 -0.35,0 -0.71,0.01 -1.05,0.02 -1.06,0.03 -2.09,0.04 -3.08,0.04 -0.48,0 -0.96,0.02 -1.46,0.05 -0.5,0.03 -0.98,0.04 -1.45,0.04 -1.58,0 -3.2,-0.09 -4.83,-0.27 -0.18,0 -0.29,0.11 -0.31,0.31 -0.03,0.21 0.04,0.34 0.22,0.4 1.64,0.29 2.9,0.83 3.78,1.63 0.88,0.79 1.32,2.03 1.32,3.73l0.17 26.57c0,2.05 -0.33,3.9 -1.01,5.54 -0.67,1.64 -1.63,3.05 -2.86,4.22 -1.26,1.19 -2.77,2.12 -4.4,2.73 -1.72,0.64 -3.55,0.97 -5.39,0.97 -0.05,0 -0.1,0 -0.15,0 -1.93,0 -3.74,-0.33 -5.41,-0.97 -1.6,-0.61 -3.09,-1.52 -4.35,-2.68 -1.24,-1.16 -2.21,-2.58 -2.86,-4.14 -0.67,-1.65 -1.01,-3.42 -1.01,-5.2 0,-0.07 0,-0.14 0,-0.21l0.18 -26.91c0,-1.06 0.48,-2.04 1.45,-2.95 0.97,-0.91 1.92,-1.6 2.86,-2.07 0.17,-0.11 0.23,-0.27 0.17,-0.44 -0.06,-0.18 -0.17,-0.27 -0.35,-0.27 -0.9,0.06 -1.82,0.1 -2.73,0.1l-2.72 0c-3.29,0 -6.6,-0.09 -9.94,-0.27 -0.18,0 -0.28,0.11 -0.31,0.31 -0.03,0.21 0.05,0.34 0.22,0.4 1.58,0.41 2.83,0.96 3.74,1.67 0.91,0.71 1.36,1.91 1.36,3.6l0 8.89c0,1.23 -0.01,2.58 -0.04,4.05 -0.02,1.33 -0.04,2.8 -0.04,4.17 0,1.36 0.02,2.84 0.02,4.18l0.09 3.57c0.04,1.08 0.1,2.05 0.18,2.9 0.09,0.85 0.22,1.48 0.39,1.89 0.65,1.94 1.63,3.73 2.96,5.37 1.31,1.64 2.82,3.08 4.53,4.31 1.7,1.23 3.53,2.18 5.49,2.86 1.97,0.68 3.98,1.01 6.03,1.01 2.81,0 5.35,-0.51 7.61,-1.53 2.26,-1.03 4.18,-2.44 5.76,-4.23 1.58,-1.78 2.81,-3.88 3.69,-6.29 0.89,-2.41 1.34,-4.95 1.34,-7.52 0,-0.04 0,-0.09 0,-0.13l0 -23.57c0,-1.23 0.41,-2.34 1.23,-3.3 0.81,-0.98 1.87,-1.58 3.16,-1.81l0 0zm52.07 46.88l-0.26 -0.71c-0.38,0.05 -0.76,0.07 -1.14,0.07 -1.41,0 -2.8,-0.34 -4.06,-0.99 -1.8,-0.92 -3.46,-2.11 -4.92,-3.52 -1.58,-1.5 -3.1,-3.17 -4.53,-5.01 -1.44,-1.85 -2.81,-3.65 -4.1,-5.41 -0.88,-1.17 -1.7,-2.3 -2.46,-3.38 -0.76,-1.08 -1.47,-1.98 -2.11,-2.69 2.02,-1.92 3.79,-4.11 5.23,-6.5 1.52,-2.4 2.33,-5.17 2.34,-8.01 0,-2.11 -0.41,-3.93 -1.24,-5.45 -0.77,-1.47 -1.89,-2.74 -3.25,-3.7 -1.41,-0.96 -2.99,-1.67 -4.66,-2.07 -1.75,-0.43 -3.55,-0.65 -5.35,-0.65 -0.01,0 -0.01,0 -0.02,0l-17.33 0c-0.17,0 -0.28,0.1 -0.31,0.3 -0.03,0.21 0.05,0.34 0.22,0.4 1.35,0.35 2.51,1.04 3.48,2.07 0.97,1.02 1.45,2.21 1.45,3.56l0 35.1c0,1.35 -0.41,2.61 -1.23,3.78 -0.82,1.17 -1.85,2.05 -3.08,2.64 -0.18,0.11 -0.22,0.28 -0.13,0.49 0.09,0.2 0.22,0.28 0.39,0.22 1.35,-0.18 2.66,-0.33 3.92,-0.45 1.26,-0.11 2.56,-0.17 3.92,-0.17 1.34,0 2.68,0.04 3.99,0.13 1.33,0.09 2.66,0.19 4,0.3l0 -0.7c-1.7,-0.18 -3.06,-0.87 -4.09,-2.07 -1.02,-1.2 -1.53,-2.66 -1.53,-4.35l0 -12.5c0.47,-0.11 0.91,-0.17 1.32,-0.17l1.41 0c1.58,0 3,0.29 4.26,0.88 1.27,0.58 2.44,1.35 3.52,2.33 1.09,0.97 2.09,2.05 2.99,3.25 0.91,1.2 1.77,2.42 2.59,3.65 0.89,1.35 1.81,2.67 2.77,3.96 0.97,1.29 2.01,2.44 3.13,3.43 1.11,1 2.37,1.82 3.78,2.47 1.4,0.64 2.99,0.96 4.75,0.96 1.06,0 2.13,-0.13 3.21,-0.4 1.07,-0.25 2.13,-0.63 3.13,-1.09l0 0zm-22.25 -32.9c0,3.17 -0.63,5.64 -1.89,7.43 -1.26,1.79 -3.54,2.68 -6.83,2.68 -0.01,0 -0.03,0 -0.04,0 -0.95,0 -1.92,-0.03 -2.86,-0.08 -0.97,-0.07 -1.95,-0.19 -2.9,-0.36l0 -21.9c0.64,-0.29 1.32,-0.48 2.02,-0.57 0.7,-0.09 1.41,-0.13 2.11,-0.13 1.7,0 3.2,0.4 4.49,1.19 1.29,0.79 2.37,1.8 3.25,3.04 0.89,1.23 1.54,2.61 1.98,4.13 0.44,1.52 0.67,3.05 0.67,4.57l0 0zm62.19 -14.07l-0.09 -0.71c-0.12,0 -0.27,0.02 -0.44,0.05 -0.18,0.03 -0.33,0.04 -0.44,0.04 -2.06,0.23 -4.15,0.36 -6.22,0.36 -0.04,0 -0.08,0 -0.12,0 -0.82,0 -1.65,-0.03 -2.51,-0.09 -0.81,-0.06 -1.62,-0.18 -2.41,-0.35 -0.18,-0.06 -0.3,0.01 -0.36,0.22 -0.06,0.2 0,0.36 0.18,0.48 0.45,0.22 0.85,0.52 1.19,0.88 0.31,0.35 0.48,0.8 0.48,1.27 0,0.02 0,0.04 0,0.06 0,0.35 -0.25,1.05 -0.75,2.11 -0.49,1.06 -1.12,2.27 -1.89,3.65 -0.79,1.41 -1.63,2.87 -2.46,4.26 -0.88,1.47 -1.67,2.81 -2.37,4.05 -0.82,1.4 -1.61,2.73 -2.38,3.96 -0.75,1.23 -1.32,2.16 -1.67,2.81 -0.82,-1.34 -1.9,-3.14 -3.25,-5.37 -1.35,-2.23 -2.67,-4.44 -3.96,-6.63 -1.13,-1.91 -2.28,-3.93 -3.34,-5.89 -0.94,-1.73 -1.41,-2.79 -1.41,-3.21 0,-0.35 0.16,-0.67 0.48,-0.96 0.33,-0.3 0.66,-0.59 1.02,-0.88 0.05,-0.06 0.07,-0.06 0.04,0 -0.03,0.06 -0.01,0.06 0.04,0 0.12,-0.12 0.15,-0.26 0.1,-0.4 -0.06,-0.14 -0.18,-0.22 -0.36,-0.22 -1.74,0.17 -3.52,0.26 -5.28,0.26 -1.24,0 -2.5,-0.05 -3.74,-0.14 -1.27,-0.07 -2.7,-0.21 -3.99,-0.32 -0.17,0 -0.28,0.11 -0.31,0.31 -0.03,0.21 0.05,0.34 0.22,0.4 0.76,0.24 1.79,0.98 3.08,2.24 1.3,1.26 2.67,2.81 4.14,4.66 1.46,1.85 2.95,3.86 4.44,6.02 1.5,2.17 2.86,4.29 4.09,6.34 1.23,2.05 2.23,3.9 2.99,5.54 0.76,1.64 1.14,2.87 1.14,3.69l0 13.37c-0.01,0.03 -0.01,0.04 -0.01,0.06 0,1.07 -0.43,2.1 -1.19,2.86 -0.75,0.8 -1.67,1.43 -2.68,1.85 -0.17,0.11 -0.25,0.26 -0.22,0.43 0.03,0.18 0.13,0.27 0.31,0.27 1.46,-0.11 2.9,-0.17 4.31,-0.17l8 0c1.24,0 2.44,0.03 3.61,0.09 0.18,0 0.28,-0.1 0.31,-0.31 0.03,-0.2 -0.05,-0.34 -0.22,-0.39 -0.66,-0.14 -1.31,-0.32 -1.94,-0.53 -0.68,-0.23 -1.33,-0.54 -1.93,-0.93 -0.57,-0.36 -1.07,-0.8 -1.5,-1.32 -0.4,-0.49 -0.62,-1.1 -0.62,-1.73 0,-0.02 0,-0.05 0,-0.07l0 -14.42c0,-1 0.37,-2.32 1.1,-3.97 0.74,-1.64 1.68,-3.43 2.82,-5.36 1.14,-1.94 2.45,-3.9 3.92,-5.9 1.46,-1.99 2.94,-3.85 4.43,-5.59 1.5,-1.73 2.91,-3.19 4.23,-4.39 1.31,-1.2 2.44,-2 3.39,-2.35l0 0.01zm84.09 40.99c-0.01,-0.01 -0.01,-0.01 -0.01,-0.01 0,-1.03 -0.09,-2.06 -0.26,-3.08 -0.06,-0.17 -0.16,-0.27 -0.31,-0.3 -0.15,-0.03 -0.28,0.04 -0.4,0.22 -1.05,2.28 -2.13,4.26 -3.21,5.93 -1.08,1.67 -2.34,3.07 -3.78,4.18 -1.44,1.11 -3.09,1.95 -4.97,2.51 -1.88,0.56 -4.11,0.83 -6.69,0.83 -0.08,0 -0.18,0 -0.27,0 -4.24,0 -8.44,-0.96 -12.25,-2.81 -3.76,-1.82 -7.15,-4.36 -9.94,-7.47 -2.81,-3.14 -5.02,-6.79 -6.51,-10.74 -1.54,-3.98 -2.33,-8.24 -2.33,-12.51 0,-0.02 0,-0.04 0,-0.06 0,-4.16 0.66,-7.95 1.97,-11.35 1.24,-3.26 3.15,-6.25 5.59,-8.75 2.47,-2.47 5.44,-4.39 8.71,-5.62 3.4,-1.33 7.19,-1.98 11.34,-1.98 0.04,0 0.08,0 0.12,0 2.4,0 4.79,0.34 7.1,1.01 2.28,0.67 4.34,1.69 6.16,3.03 1.81,1.35 3.32,3.03 4.53,5.02 1.2,1.99 2.03,4.31 2.5,6.95 0.07,0.17 0.15,0.26 0.27,0.26 0.17,0 0.3,-0.09 0.35,-0.26 0.41,-2.7 0.78,-5.39 1.1,-8.05 0.32,-2.67 0.54,-5.4 0.66,-8.23 0,-0.23 -0.11,-0.35 -0.35,-0.35 -1.47,-0.12 -2.97,-0.26 -4.53,-0.44 -1.56,-0.17 -3.09,-0.38 -4.62,-0.61 -2.05,-0.3 -4.15,-0.59 -6.28,-0.89 -2.14,-0.29 -4.3,-0.44 -6.47,-0.44 -1.93,0 -4.03,0.12 -6.28,0.36 -2.26,0.23 -4.51,0.63 -6.73,1.18 -2.23,0.56 -4.36,1.31 -6.38,2.25 -1.93,0.86 -3.7,2.06 -5.23,3.51 -1.82,1.76 -3.43,3.73 -4.84,5.9 -1.41,2.17 -2.6,4.45 -3.56,6.86 -0.97,2.38 -1.7,4.86 -2.2,7.39 -0.49,2.48 -0.75,5.02 -0.75,7.55 0,0 0,0.01 0,0.01 0,4.86 0.82,9.28 2.47,13.23 1.64,3.97 3.94,7.36 6.9,10.21 2.97,2.84 6.47,5.04 10.51,6.6 4.11,1.54 8.46,2.33 12.84,2.33 0.11,0 0.24,0 0.35,0 3.87,0 7.68,-0.19 11.44,-0.57 3.75,-0.38 7.56,-0.91 11.26,-1.54 0.18,0 0.27,-0.06 0.27,-0.18 0.82,-1.64 1.48,-3.43 1.98,-5.36 0.47,-1.87 0.71,-3.79 0.73,-5.72l0 0zm52.06 5.98l-0.26 -0.71c-0.37,0.05 -0.76,0.07 -1.13,0.07 -1.42,0 -2.81,-0.34 -4.06,-0.99 -1.81,-0.93 -3.47,-2.11 -4.93,-3.52 -1.58,-1.5 -3.09,-3.17 -4.53,-5.01 -1.44,-1.85 -2.8,-3.65 -4.09,-5.41 -0.88,-1.17 -1.71,-2.3 -2.47,-3.38 -0.64,-0.94 -1.35,-1.84 -2.11,-2.69 2.02,-1.92 3.78,-4.11 5.23,-6.5 1.52,-2.4 2.33,-5.17 2.34,-8.01 0,-2.11 -0.41,-3.93 -1.23,-5.45 -0.78,-1.47 -1.9,-2.74 -3.26,-3.7 -1.41,-0.96 -2.99,-1.67 -4.66,-2.07 -1.75,-0.43 -3.55,-0.65 -5.35,-0.65 -0.01,0 -0.01,0 -0.02,0l-17.32 0c-0.18,0 -0.28,0.1 -0.31,0.3 -0.03,0.21 0.04,0.34 0.22,0.4 1.34,0.35 2.5,1.04 3.47,2.07 0.97,1.02 1.45,2.21 1.45,3.56l0 35.1c0,1.35 -0.41,2.61 -1.23,3.78 -0.82,1.17 -1.85,2.05 -3.08,2.64 -0.17,0.11 -0.22,0.28 -0.13,0.49 0.09,0.2 0.22,0.28 0.4,0.22 1.34,-0.18 2.65,-0.33 3.91,-0.45 1.26,-0.11 2.56,-0.17 3.92,-0.17 1.34,0 2.68,0.04 4,0.13 1.32,0.09 2.65,0.19 4,0.3l0 -0.7c-1.7,-0.18 -3.07,-0.87 -4.09,-2.07 -1.03,-1.2 -1.54,-2.66 -1.54,-4.35l0 -12.5c0.47,-0.11 0.91,-0.17 1.32,-0.17l1.41 0c1.58,0 3,0.29 4.27,0.88 1.26,0.58 2.43,1.35 3.52,2.33 1.08,0.97 2.08,2.05 2.99,3.25 0.9,1.2 1.77,2.42 2.59,3.65 0.88,1.35 1.8,2.67 2.77,3.96 0.96,1.29 2,2.44 3.12,3.43 1.12,1 2.37,1.82 3.78,2.47 1.41,0.64 2.99,0.96 4.75,0.96 1.06,0 2.13,-0.13 3.21,-0.4 1.07,-0.25 2.13,-0.63 3.13,-1.09l0 0zm-22.25 -32.9c0,3.17 -0.63,5.64 -1.89,7.43 -1.27,1.79 -3.54,2.68 -6.82,2.68 -0.01,0 -0.03,0 -0.04,0 -0.95,0 -1.92,-0.03 -2.87,-0.08 -0.96,-0.07 -1.94,-0.19 -2.9,-0.36l0 -21.9c0.65,-0.29 1.32,-0.48 2.02,-0.57 0.71,-0.09 1.41,-0.13 2.12,-0.13 1.7,0 3.19,0.4 4.48,1.19 1.29,0.79 2.38,1.8 3.26,3.04 0.88,1.23 1.53,2.61 1.98,4.13 0.44,1.52 0.66,3.05 0.66,4.57l0 0zm64.91 -13.98c-1.29,0.23 -2.34,0.83 -3.16,1.8 -0.8,0.9 -1.24,2.07 -1.24,3.27 0,0.01 0,0.02 0,0.03l0 23.57c0,2.7 -0.44,5.25 -1.31,7.65 -0.83,2.3 -2.09,4.44 -3.7,6.29 -1.58,1.79 -3.51,3.19 -5.76,4.22 -2.26,1.03 -4.79,1.53 -7.61,1.53 -2.06,0 -4.06,-0.33 -6.03,-1.01 -1.96,-0.67 -3.81,-1.64 -5.49,-2.86 -1.7,-1.22 -3.23,-2.68 -4.53,-4.31 -1.3,-1.59 -2.3,-3.41 -2.95,-5.36 -0.22,-0.61 -0.36,-1.25 -0.4,-1.89 -0.09,-0.96 -0.16,-1.94 -0.17,-2.91l-0.1 -3.56c-0.01,-1.34 -0.04,-2.82 -0.04,-4.18 0,-1.37 0.03,-2.84 0.03,-4.18 0.03,-1.47 0.05,-2.82 0.05,-4.05l0.01 -8.88c0,-1.7 -0.46,-2.9 -1.36,-3.6 -0.91,-0.71 -2.16,-1.26 -3.74,-1.67 -0.17,-0.06 -0.25,-0.19 -0.22,-0.4 0.03,-0.2 0.13,-0.31 0.31,-0.31 3.34,0.18 6.66,0.27 9.94,0.27l2.73 0c0.88,0 1.78,-0.03 2.73,-0.09 0.17,0 0.29,0.09 0.34,0.26 0.07,0.18 0,0.32 -0.17,0.44 -1.05,0.55 -2.01,1.25 -2.86,2.07 -0.96,0.91 -1.45,1.9 -1.45,2.95l-0.18 26.92c0,1.99 0.34,3.79 1.01,5.4 0.68,1.61 1.63,2.99 2.86,4.14 1.23,1.14 2.69,2.04 4.36,2.68 1.67,0.65 3.48,0.97 5.41,0.97 0.05,0 0.1,0 0.14,0 1.84,0 3.67,-0.33 5.4,-0.97 1.7,-0.64 3.16,-1.55 4.39,-2.73 1.24,-1.17 2.19,-2.58 2.86,-4.22 0.68,-1.64 1.01,-3.49 1.01,-5.54l-0.17 -26.57c0,-1.7 -0.44,-2.94 -1.32,-3.73 -0.88,-0.8 -2.14,-1.34 -3.78,-1.63 -0.18,-0.06 -0.25,-0.19 -0.22,-0.4 0.03,-0.2 0.13,-0.3 0.31,-0.3 1.64,0.17 3.25,0.26 4.83,0.26 0.47,0 0.95,-0.01 1.46,-0.04 0.49,-0.03 0.97,-0.05 1.45,-0.05 0.99,0 2.02,-0.01 3.08,-0.04 1.05,-0.03 2.11,-0.02 3.16,0.04l0.1 0.72 -0.01 0zm20.59 47.23l0 -0.71c-2.11,-0.17 -3.59,-0.74 -4.44,-1.71 -0.85,-0.97 -1.28,-2.57 -1.28,-4.8l0 -36.24c0,-1.52 0.4,-2.49 1.19,-2.9 0.79,-0.41 1.83,-0.76 3.12,-1.06 0.18,-0.06 0.23,-0.2 0.18,-0.44 -0.06,-0.23 -0.18,-0.32 -0.36,-0.26 -1.17,0.17 -2.37,0.29 -3.6,0.35 -1.24,0.05 -2.5,0.08 -3.74,0.08 -1.24,0 -2.5,-0.03 -3.73,-0.08 -1.23,-0.05 -2.48,-0.15 -3.7,-0.26 -0.18,0 -0.29,0.1 -0.31,0.31 -0.03,0.2 0.05,0.33 0.22,0.39 1.23,0.18 2.3,0.53 3.21,1.06 0.91,0.53 1.36,1.47 1.36,2.81l0 36.51c0,1.52 -0.34,2.83 -1.01,3.91 -0.68,1.09 -1.74,1.89 -3.21,2.42 -0.18,0.06 -0.25,0.19 -0.22,0.4 0.03,0.2 0.13,0.31 0.31,0.31 1.58,-0.06 3.14,-0.11 4.66,-0.13 1.53,-0.04 3.08,-0.05 4.66,-0.05 1.12,0 2.22,0.02 3.3,0.05 1.08,0.03 2.21,0.04 3.38,0.04l0.01 0zm29.03 -12.84c0,-1.58 -0.3,-3.05 -0.89,-4.4 -0.58,-1.34 -1.34,-2.62 -2.28,-3.82 -0.95,-1.21 -2.01,-2.34 -3.21,-3.43 -1.18,-1.07 -2.42,-2.14 -3.66,-3.13 -0.98,-0.84 -2.23,-1.97 -3.24,-2.8 -1,-0.81 -1.93,-1.74 -2.78,-2.73 -0.75,-0.89 -1.4,-1.87 -1.93,-2.91 -0.49,-0.99 -0.74,-2.08 -0.74,-3.18 0,-0.02 0,-0.05 0,-0.07 0,-2.23 0.74,-4.06 2.24,-5.5 1.49,-1.43 3.36,-2.15 5.58,-2.15 2.17,0 3.92,0.73 5.24,2.2 1.32,1.46 2.21,3.22 2.68,5.27 0.06,0.18 0.18,0.27 0.35,0.27 0.18,0 0.3,-0.09 0.35,-0.27 0.48,-3.04 0.82,-6.01 1.06,-8.88 0,-0.11 -0.09,-0.23 -0.27,-0.35 -2,-0.58 -4.08,-0.88 -6.17,-0.88 -0.08,0 -0.16,0 -0.24,0 -1.65,0 -3.43,0.22 -5.37,0.66 -1.88,0.42 -3.69,1.1 -5.37,2.02 -1.6,0.88 -3.01,2.08 -4.14,3.52 -1.08,1.42 -1.67,3.16 -1.67,4.95 0,0.06 0,0.13 0,0.2 0,1.35 0.3,2.67 0.88,3.96 0.59,1.29 1.35,2.56 2.29,3.83 0.94,1.26 2.02,2.49 3.25,3.69 1.24,1.2 2.47,2.39 3.7,3.56 1.17,1.12 2.32,2.23 3.43,3.34 1.05,1.05 2.07,2.17 2.99,3.34 0.88,1.12 1.58,2.21 2.11,3.3 0.53,1.09 0.79,2.18 0.79,3.3 0,1.17 -0.29,2.25 -0.87,3.21 -0.59,0.96 -1.35,1.8 -2.25,2.47 -0.92,0.68 -1.95,1.2 -3.03,1.53 -1.08,0.35 -2.21,0.53 -3.35,0.53 -1.09,0 -2.17,-0.16 -3.21,-0.48 -1.04,-0.31 -2.02,-0.82 -2.86,-1.5 -0.82,-0.67 -1.51,-1.5 -2.02,-2.42 -0.52,-0.96 -0.79,-2.03 -0.79,-3.12 0,-0.04 0,-0.09 0,-0.14l0 -1.31c0,-0.18 -0.12,-0.27 -0.35,-0.27 -0.24,0 -0.36,0.09 -0.36,0.27l-0.44 2.11c-0.11,0.66 -0.25,1.35 -0.39,2.02 -0.14,0.69 -0.22,1.4 -0.22,2.11 0,1.12 0.25,2.04 0.75,2.77 0.5,0.73 1.14,1.33 1.93,1.8 0.8,0.47 1.68,0.81 2.64,1.01 0.97,0.21 1.9,0.31 2.77,0.31 1.82,0 3.74,-0.33 5.76,-1.01 2.03,-0.67 3.88,-1.61 5.55,-2.81 1.66,-1.2 3.04,-2.65 4.13,-4.36 1.06,-1.66 1.62,-3.59 1.62,-5.57 0,-0.02 0,-0.04 0,-0.06l0.01 0zm32.54 4.31l-0.71 -0.17c-0.46,1.99 -1.42,3.53 -2.86,4.61 -1.43,1.09 -3.17,1.62 -5.23,1.62 -1.52,0 -3.09,-0.33 -4.71,-1 -1.5,-0.6 -2.81,-1.63 -3.73,-2.96l0 -18.12 4.66 0.01c1.75,0 3.51,0.16 5.23,0.47 0.79,0.15 1.33,0.37 1.63,0.67 0.3,0.29 0.5,0.61 0.61,0.97l0.36 1.05c0.11,0.35 0.22,0.68 0.3,0.97 0.11,0.33 0.31,0.63 0.57,0.88 0.06,0.07 0.16,0.11 0.26,0.11 0.04,0 0.09,-0.01 0.13,-0.03 0.15,-0.05 0.23,-0.17 0.23,-0.34 0.11,-0.71 0.2,-1.44 0.26,-2.2 0.06,-0.76 0.15,-1.5 0.27,-2.2 0.11,-0.71 0.22,-1.47 0.3,-2.29 0.09,-0.82 0.16,-1.58 0.22,-2.29 0,-0.35 -0.14,-0.47 -0.43,-0.35 -0.65,0.18 -1.3,0.44 -1.94,0.8l-1.41 0.52c-0.36,0.16 -0.75,0.25 -1.14,0.27l-10.21 0 0 -18.03 6.95 0c1.89,0 3.47,0.32 4.76,0.97 1.29,0.64 1.99,1.99 2.11,4.04 0,0.18 0.1,0.28 0.31,0.31 0.2,0.03 0.33,-0.04 0.39,-0.22 0.3,-1.35 0.57,-2.68 0.84,-4 0.26,-1.32 0.48,-2.74 0.66,-4.26 0,-0.35 -0.15,-0.47 -0.44,-0.35 -0.24,0.11 -0.49,0.22 -0.75,0.31 -0.26,0.08 -0.51,0.19 -0.74,0.3l-25.07 0c-0.18,0 -0.28,0.08 -0.31,0.22 -0.03,0.15 0.01,0.28 0.13,0.4 0.47,0.29 0.92,0.51 1.36,0.66l1.18 0.39c0.65,0.24 1.25,0.52 1.81,0.88 0.55,0.35 0.83,1.12 0.83,2.29l0 36.59c0,0.76 -0.04,1.51 -0.13,2.24 -0.09,0.73 -0.28,1.39 -0.57,1.98 -0.29,0.58 -0.73,1.08 -1.28,1.45 -0.59,0.37 -1.28,0.57 -1.99,0.57 -0.05,0 -0.1,0 -0.16,0l0 0.71c1.58,-0.06 3.18,-0.11 4.79,-0.13 1.61,-0.03 3.21,-0.05 4.8,-0.05 1.16,0 2.31,0.02 3.43,0.05 1.11,0.03 2.25,0.04 3.43,0.04 1.34,0 2.71,0.02 4.08,0.05 1.38,0.03 2.75,0.04 4.1,0.04 0.29,0 0.67,-0.09 1.13,-0.26l0.1 -0.09c0.23,0 0.34,-0.09 0.34,-0.27 0.18,-1.35 0.36,-2.66 0.53,-3.92 0.18,-1.26 0.42,-2.57 0.71,-3.92l0.01 0.01zm29.02 -4.31c0,-0.03 0,-0.06 0,-0.09 0,-1.48 -0.3,-2.95 -0.88,-4.31 -0.6,-1.36 -1.37,-2.66 -2.29,-3.83 -0.96,-1.23 -2.04,-2.38 -3.2,-3.42 -1.18,-1.07 -2.42,-2.14 -3.66,-3.13 -1.12,-0.94 -2.2,-1.86 -3.25,-2.77 -0.99,-0.84 -1.92,-1.77 -2.77,-2.76 -0.76,-0.89 -1.41,-1.87 -1.94,-2.91 -0.49,-0.98 -0.74,-2.07 -0.74,-3.17 0,-0.03 0,-0.06 0,-0.08 0,-2.23 0.74,-4.06 2.24,-5.5 1.49,-1.43 3.36,-2.15 5.58,-2.15 2.17,0 3.92,0.73 5.24,2.2 1.32,1.46 2.21,3.22 2.68,5.27 0.07,0.18 0.18,0.27 0.35,0.27 0.18,0 0.3,-0.09 0.36,-0.27 0.47,-3.04 0.82,-6.01 1.05,-8.88 0,-0.11 -0.08,-0.23 -0.26,-0.35 -2.01,-0.58 -4.09,-0.88 -6.18,-0.88 -0.08,0 -0.16,0 -0.24,0 -1.64,0 -3.43,0.22 -5.37,0.66 -1.93,0.44 -3.73,1.12 -5.37,2.02 -1.6,0.88 -3.01,2.08 -4.13,3.52 -1.09,1.42 -1.68,3.16 -1.68,4.96 0,0.06 0,0.13 0,0.19 0,1.35 0.3,2.67 0.88,3.96 0.59,1.29 1.35,2.56 2.29,3.83 0.94,1.26 2.03,2.49 3.26,3.69 1.23,1.2 2.46,2.39 3.69,3.56 1.17,1.12 2.32,2.23 3.43,3.34 1.12,1.12 2.12,2.23 2.99,3.35 0.88,1.12 1.58,2.21 2.12,3.3 0.52,1.09 0.79,2.18 0.79,3.3 0,1.17 -0.3,2.24 -0.89,3.21 -0.58,0.95 -1.34,1.79 -2.24,2.46 -0.92,0.68 -1.94,1.2 -3.03,1.53 -1.08,0.35 -2.21,0.53 -3.35,0.53 -1.09,0 -2.17,-0.16 -3.21,-0.48 -1.08,-0.33 -2.03,-0.83 -2.86,-1.5 -0.82,-0.68 -1.49,-1.48 -2.02,-2.42 -0.52,-0.96 -0.79,-2.04 -0.79,-3.13 0,-0.04 0,-0.09 0,-0.13l0 -1.32c0,-0.17 -0.12,-0.27 -0.35,-0.27 -0.24,0 -0.35,0.1 -0.35,0.27l-0.44 2.11c-0.12,0.65 -0.25,1.33 -0.39,2.03 -0.15,0.71 -0.23,1.4 -0.23,2.11 0,0.06 0,0.12 0,0.18 0,0.92 0.26,1.82 0.75,2.59 0.5,0.73 1.14,1.33 1.93,1.8 0.79,0.47 1.68,0.81 2.64,1.02 0.97,0.2 1.9,0.3 2.77,0.3 1.82,0 3.74,-0.33 5.76,-1 2.02,-0.68 3.87,-1.62 5.55,-2.82 1.64,-1.17 3.05,-2.66 4.13,-4.36 1.09,-1.7 1.64,-3.58 1.64,-5.63l-0.01 0z"></path>
 </g>
</svg>
